# xmcd
#
# Track frame offsets: 
#        150
#        20728
#        36817
#        63015
#        78585
#        100615
#        121935
#        141111
#        174357
#        201151
#        232849
#        250962
#
# Disc length: 3756 seconds
#
# Revision: 1
# Processed by: cddbd v1.5.2PL0 Copyright (c) Steve Scherf et al.
# Submitted via: ExactAudioCopy v0.99pb5
#
DISCID=940eaa0c
DTITLE=Various Artist - Venus Jazz Cafe (Disc-2)
DYEAR=2012
DGENRE=Jazz
TTITLE0=Ceu E Mar (Maucha Adnet)
TTITLE1=I'll Remember You (Simone and Her Hawaiian Jazz Band )
TTITLE2=And Here's To You (Joe Beck)
TTITLE3=Norweigian Wood (Giovanni Guidi)
TTITLE4=Tea For Two (Cyrille Aimee and Diego Figueiredo)
TTITLE5=Again (Eddie Higgins Trio)
TTITLE6=Easy To Love (Phil Woods with Strings)
TTITLE7=Crucificado (Marion Brown)
TTITLE8=The Island (Tessa Souter)
TTITLE9=Gnid (Enrico Rava)
TTITLE10=I Got Lost In His Arms (Marilyn Scott)
TTITLE11=Moon And Sand (John Hicks Trio)
EXTD=YEAR: 2012
EXTT0=
EXTT1=
EXTT2=
EXTT3=
EXTT4=
EXTT5=
EXTT6=
EXTT7=
EXTT8=
EXTT9=
EXTT10=
EXTT11=
PLAYORDER=
